# xmcd
#
# Track frame offsets:
#	150
#	13501
#	27629
#	48149
#	71656
#	93966
#	112552
#	131119
#	150181
#	174742
#	195220
#	216198
#
# Disc length: 3214 seconds
#
# Revision: 9830256
# Processed by: cddbd v1.5.2PL0 Copyright (c) Steve Scherf et al.
# Submitted via: EZCDAudioConverter 8.0.2.1
#
DISCID=900c8c0c
DTITLE=Various Artist - Nối Lại Tình Xưa
DYEAR=2006
DGENRE=Alternative
TTITLE0=Như Quỳnh, Mạnh Đình - Nửa đời hương phấn
TTITLE1=Như Quỳnh - Xác pháo nhà ai
TTITLE2=Như Quỳnh, Mạnh Đình - Nối Lại Tình Xưa
TTITLE3=Trường Vũ - Đen bạc
TTITLE4=Chế Linh, Trường Vũ - LK Trong tầm mắt đời, Thương hận
TTITLE5=Tâm Đoan - Mộng tình
TTITLE6=Quang Lê - Chuyện một chiếc cầu đã gãy
TTITLE7=Ngọc Hạ, Quang Lê - Tình lúa duyên trăng
TTITLE8=Như Quỳnh - Còn thương rau đắng mọc sau hè
TTITLE9=Mạnh Quỳnh - Tôi đã yêu người
TTITLE10=Phương Hống Quế, Thái Châu - LK Đêm vũ trường, Phạn tơ tằm
TTITLE11=Thế Sơn - Hòn vọng phu 1
EXTD=
EXTT0=
EXTT1=
EXTT2=
EXTT3=
EXTT4=
EXTT5=
EXTT6=
EXTT7=
EXTT8=
EXTT9=
EXTT10=
EXTT11=
PLAYORDER=
